<svg xmlns="http://www.w3.org/2000/svg" xmlns:xlink="http://www.w3.org/1999/xlink" fill="#ff5f05" version="1.1" id="Capa_1" width="800px" height="800px" viewBox="-3 -3 597 597" xml:space="preserve"><g id="deeditor_bgCarrier" stroke-width="0">
  <rect id="dee_c_e" x="-3" y="-3" width="597" height="597" rx="38.4" fill="#13294b" strokewidth="0"/>
</g>
<g>
	<g>
		<path d="M66.25,409.939c9.945,6.346,20.707,11.442,31.871,15.14l0.019,84.994c0.007,32.051,26.088,58.127,58.14,58.127h247.666    c32.059,0,58.14-26.081,58.14-58.14v-52.419c31.728-8.177,60.622-25.373,83.159-49.822c28.694-31.13,44.782-71.604,45.302-113.966    c0.284-23.106-3.976-45.601-12.661-66.857c-8.379-20.509-20.499-38.976-36.024-54.887c-15.525-15.911-33.689-28.482-53.986-37.362    c-21.037-9.204-43.419-14.014-66.525-14.298c-0.712-0.008-1.417-0.013-2.122-0.013c-0.915,0-1.831,0.007-2.748,0.022    c-4.355-9.127-9.524-17.869-15.463-26.138c-10.227-14.241-22.525-26.792-36.554-37.307    c-14.221-10.657-29.922-18.996-46.667-24.783c-17.312-5.983-35.44-9.132-53.886-9.358c-0.709-0.009-1.423-0.013-2.134-0.013    h-0.001c-42.671,0-83.565,15.803-115.149,44.499c-26.409,23.996-44.489,55.316-52.091,89.707    c-15.806,5.407-30.518,13.621-43.294,24.248c-16.867,14.029-30.414,32.275-39.177,52.766    C-6.749,278.068-2.414,328.104,23.66,367.924C34.581,384.601,49.307,399.129,66.25,409.939z M122.07,194.018    c6.376-1.179,11.266-6.378,11.913-12.83c6.528-65.007,61.409-115.489,127.792-115.489c0.536,0,1.073,0.003,1.609,0.01    c56.601,0.695,104.197,37.891,120.693,88.929c1.989,6.155,7.719,10.193,14.026,10.193c0.722,0,1.451-0.053,2.183-0.162    c6.184-0.917,12.508-1.394,18.94-1.394c0.53,0,1.062,0.003,1.595,0.01c70.949,0.871,127.758,59.092,126.888,130.042    c-0.811,66.019-51.28,119.786-115.453,126.237c-7.409,0.745-13.012,7.06-13.012,14.507v75.99c0,8.449-6.85,15.3-15.3,15.3h-26.559    v-92.742c0-11.83-9.59-21.42-21.42-21.42s-21.42,9.59-21.42,21.42v92.742h-28.578v-92.742c0-11.83-9.59-21.42-21.42-21.42    s-21.42,9.59-21.42,21.42v92.742h-34.272v-51.738c0-11.83-9.59-21.42-21.42-21.42s-21.42,9.59-21.42,21.42v51.738h-29.737    c-8.448,0-15.298-6.848-15.3-15.296l-0.023-107.257c-0.002-7.232-5.294-13.428-12.457-14.428    c-28.051-3.918-53.5-20.255-68.998-43.924C21.6,286.575,53.569,206.683,122.07,194.018z" fill="#ff5f05"/>
		<path d="M403.945,568.7H156.279c-32.327,0-58.633-26.3-58.64-58.627l-0.019-84.634c-11.149-3.724-21.792-8.795-31.64-15.078    c-17-10.849-31.78-25.428-42.739-42.163c-26.165-39.96-30.516-90.171-11.638-134.316c8.794-20.563,22.39-38.875,39.316-52.954    c12.765-10.618,27.294-18.774,43.187-24.246c7.724-34.681,25.764-65.691,52.182-89.695    c31.674-28.778,72.691-44.629,115.484-44.629c0.002,0,0,0,0.002,0c0.714,0,1.43,0.004,2.141,0.013    c18.497,0.227,36.679,3.385,54.042,9.386c16.795,5.805,32.541,14.167,46.804,24.856c14.07,10.546,26.405,23.134,36.66,37.415    c5.868,8.171,11.038,16.892,15.369,25.924c1.521-0.021,3.031-0.022,4.563-0.004c23.175,0.285,45.622,5.11,66.72,14.34    c20.355,8.905,38.572,21.513,54.144,37.471c15.57,15.957,27.727,34.478,36.13,55.047c8.711,21.319,12.983,43.879,12.698,67.053    c-0.521,42.486-16.656,83.079-45.435,114.298c-22.433,24.336-51.135,41.575-83.026,49.87v52.032    C462.584,542.395,436.279,568.7,403.945,568.7z M261.775,23.359c-42.547,0-83.323,15.757-114.814,44.369    c-26.333,23.927-44.293,54.856-51.939,89.444l-0.061,0.274l-0.266,0.091c-15.88,5.432-30.394,13.561-43.136,24.159    c-16.806,13.978-30.304,32.16-39.037,52.579C-6.223,278.112-1.904,327.972,24.078,367.65    c10.882,16.617,25.558,31.096,42.44,41.867c9.878,6.304,20.563,11.379,31.759,15.087l0.343,0.113l0.019,85.355    c0.007,31.775,25.864,57.627,57.64,57.627h247.666c31.782,0,57.64-25.857,57.64-57.64v-52.807l0.375-0.097    c31.854-8.209,60.526-25.388,82.917-49.677c28.609-31.038,44.651-71.395,45.169-113.633c0.283-23.039-3.964-45.467-12.624-66.662    c-8.354-20.45-20.439-38.863-35.919-54.727c-15.481-15.866-33.593-28.399-53.829-37.253    c-20.975-9.176-43.291-13.973-66.331-14.256c-1.631-0.019-3.237-0.017-4.856,0.009l-0.32,0.005l-0.139-0.29    c-4.334-9.083-9.521-17.851-15.418-26.062c-10.195-14.198-22.458-26.713-36.447-37.198c-14.18-10.626-29.834-18.94-46.53-24.71    c-17.262-5.966-35.339-9.105-53.729-9.331C263.195,23.363,262.484,23.359,261.775,23.359z M403.945,525.86h-27.059v-93.242    c0-11.535-9.385-20.92-20.92-20.92s-20.92,9.385-20.92,20.92v93.242h-29.578v-93.242c0-11.535-9.385-20.92-20.92-20.92    s-20.92,9.385-20.92,20.92v93.242h-35.272v-52.238c0-11.535-9.385-20.92-20.92-20.92s-20.92,9.385-20.92,20.92v52.238h-30.237    c-8.71,0-15.798-7.086-15.8-15.796l-0.023-107.257c-0.002-6.986-5.172-12.976-12.026-13.933    c-27.872-3.893-53.796-20.396-69.347-44.145c-18.291-27.935-21.315-63.076-8.088-94.003    c13.007-30.417,38.881-51.266,70.985-57.202c6.157-1.138,10.889-6.232,11.506-12.388c3.181-31.671,17.959-60.949,41.613-82.441    c23.775-21.602,54.557-33.498,86.675-33.498c0.539,0,1.078,0.003,1.616,0.01c55.433,0.681,104.124,36.558,121.163,89.275    c1.903,5.89,7.35,9.847,13.551,9.847c0.703,0,1.413-0.053,2.109-0.156c6.78-1.006,13.681-1.477,20.615-1.389    c71.109,0.873,128.253,59.437,127.381,130.548c-0.807,65.686-50.634,120.167-115.903,126.728    c-7.161,0.721-12.562,6.743-12.562,14.01v75.99C419.745,518.772,412.657,525.86,403.945,525.86z M377.886,524.86h26.059    c8.16,0,14.8-6.639,14.8-14.8v-75.99c0-7.782,5.787-14.232,13.462-15.004c64.762-6.511,114.203-60.569,115.003-125.746    c0.865-70.56-55.835-128.669-126.394-129.535c-6.86-0.087-13.728,0.38-20.456,1.378c-0.744,0.111-1.504,0.167-2.256,0.167    c-6.637,0-12.465-4.235-14.502-10.539c-16.907-52.309-65.221-87.907-120.224-88.583c-0.534-0.006-1.069-0.01-1.603-0.01    c-31.87,0-62.413,11.804-86.004,33.238c-23.471,21.325-38.135,50.375-41.291,81.8c-0.662,6.596-5.728,12.053-12.32,13.272    c-31.77,5.874-57.374,26.508-70.248,56.611c-13.094,30.619-10.102,65.408,8.006,93.062c15.395,23.511,41.058,39.849,68.649,43.702    c7.345,1.025,12.886,7.44,12.888,14.923l0.023,107.257c0.002,8.158,6.641,14.796,14.8,14.796h29.237v-51.238    c0-12.087,9.833-21.92,21.92-21.92c12.087,0,21.92,9.833,21.92,21.92v51.238h33.272v-92.242c0-12.087,9.833-21.92,21.92-21.92    c12.087,0,21.92,9.833,21.92,21.92v92.242h27.578v-92.242c0-12.087,9.833-21.92,21.92-21.92s21.92,9.833,21.92,21.92V524.86z" fill="#ff5f05"/>
	</g>
</g>
</svg>